<svg xmlns="http://www.w3.org/2000/svg" viewBox="0 0 980 260" role="img" aria-labelledby="title desc">
  <title id="title">Costa Software Solutions</title>
  <desc id="desc">Logo horizontal da Costa Software Solutions em verde e branco.</desc>
  <defs>
    <linearGradient id="brandGradient" x1="45" y1="35" x2="215" y2="225" gradientUnits="userSpaceOnUse">
      <stop offset="0" stop-color="#34e6a8"/>
      <stop offset="0.52" stop-color="#00a878"/>
      <stop offset="1" stop-color="#007f5f"/>
    </linearGradient>
  </defs>
  <g>
    <rect x="24" y="24" width="212" height="212" rx="50" fill="#071512"/>
    <path d="M173 69c-18-13-41-20-65-18-48 5-85 45-86 93-1 50 38 91 87 94 24 1 47-7 66-22" fill="none" stroke="url(#brandGradient)" stroke-width="28" stroke-linecap="round"/>
    <path d="M64 153h54l42-43" fill="none" stroke="#dff8ee" stroke-width="11" stroke-linecap="round" stroke-linejoin="round"/>
    <path d="M118 153l41 36" fill="none" stroke="#dff8ee" stroke-width="11" stroke-linecap="round" stroke-linejoin="round"/>
    <circle cx="64" cy="153" r="14" fill="#00a878" stroke="#dff8ee" stroke-width="8"/>
    <circle cx="118" cy="153" r="12" fill="#071512" stroke="#dff8ee" stroke-width="8"/>
    <circle cx="161" cy="110" r="13" fill="#071512" stroke="#34e6a8" stroke-width="8"/>
    <circle cx="160" cy="189" r="13" fill="#071512" stroke="#34e6a8" stroke-width="8"/>
  </g>
  <g fill="#ffffff">
    <text x="278" y="112" font-family="Montserrat, Arial, sans-serif" font-size="58" font-weight="800" letter-spacing="0">Costa</text>
    <text x="278" y="170" font-family="Montserrat, Arial, sans-serif" font-size="46" font-weight="700" letter-spacing="0">Software Solutions</text>
    <text x="280" y="207" font-family="Montserrat, Arial, sans-serif" font-size="20" font-weight="700" letter-spacing="5" fill="#34e6a8">POWER BI | AUTOMAÇÃO | IA</text>
  </g>
</svg>
