<svg xmlns="http://www.w3.org/2000/svg" viewBox="0 0 512 512" role="img" aria-labelledby="title desc">
  <title id="title">Costa Software Solutions</title>
  <desc id="desc">Monograma C com conexoes digitais em verde.</desc>
  <defs>
    <linearGradient id="markGradient" x1="104" y1="88" x2="408" y2="424" gradientUnits="userSpaceOnUse">
      <stop offset="0" stop-color="#34e6a8"/>
      <stop offset="0.52" stop-color="#00a878"/>
      <stop offset="1" stop-color="#007f5f"/>
    </linearGradient>
    <filter id="softShadow" x="-20%" y="-20%" width="140%" height="140%">
      <feDropShadow dx="0" dy="18" stdDeviation="18" flood-color="#03120f" flood-opacity="0.24"/>
    </filter>
  </defs>
  <rect width="512" height="512" rx="112" fill="#071512"/>
  <g filter="url(#softShadow)">
    <path d="M356 137c-32-24-72-36-114-32-84 8-149 78-151 162-2 87 66 160 153 165 43 2 84-12 116-39" fill="none" stroke="url(#markGradient)" stroke-width="52" stroke-linecap="round"/>
    <path d="M166 283h95l72-76" fill="none" stroke="#dff8ee" stroke-width="20" stroke-linecap="round" stroke-linejoin="round"/>
    <path d="M260 283l71 63" fill="none" stroke="#dff8ee" stroke-width="20" stroke-linecap="round" stroke-linejoin="round"/>
    <circle cx="166" cy="283" r="26" fill="#00a878" stroke="#dff8ee" stroke-width="14"/>
    <circle cx="260" cy="283" r="22" fill="#071512" stroke="#dff8ee" stroke-width="14"/>
    <circle cx="333" cy="207" r="24" fill="#071512" stroke="#34e6a8" stroke-width="14"/>
    <circle cx="331" cy="346" r="24" fill="#071512" stroke="#34e6a8" stroke-width="14"/>
    <path d="M366 296c33-27 48-67 37-106 34 20 47 64 25 98-14 22-39 33-62 8Z" fill="#34e6a8"/>
  </g>
</svg>
